<?xml version="1.0" encoding="UTF-8"?><svg id="Calque_2" xmlns="http://www.w3.org/2000/svg" viewBox="0 0 326.81 99.65"><defs><style>.cls-1{fill-rule:evenodd;}</style></defs><path class="cls-1" d="M310.59,63.03c-.4-.28-.81-.57-1.21-.85-2.58-1.84-5.18-3.65-7.67-5.61-2.51-1.98-4.87-4.05-7.28-6.16-3.64-3.2-7.05-6.41-10.7-9.61,4.45,1.98,8.75,3.87,13.1,6.04,2.87,1.43,5.68,2.87,8.45,4.48,2.74,1.59,5.37,3.34,8.03,5.06,3.97,2.57,7.88,5.23,11.86,7.79,1.67,1.1,2.14,3.35,1.04,5.03-.51,.78-1.28,1.3-2.12,1.52-4.67,2.66-9.29,5.36-13.89,8.04-3.18,1.85-6.33,3.75-9.51,5.59-2.13,1.23-4.26,2.42-6.4,3.62-3.24,1.82-6.43,3.58-9.63,5.49-3.34,1.99-6.59,3.98-9.85,6.2,3.95-4.48,7.95-8.65,12.33-12.59,2.93-2.64,5.92-5.14,9.09-7.48,3.14-2.32,6.43-4.41,9.74-6.5,1.54-.97,3.09-1.92,4.65-2.86-47.98-2.7-96.19-2.59-144.19,.63-51.34,3.45-102.43,10.46-152.73,21.14-1.54,.33-3.06-.65-3.39-2.19-.1-.46-.08-.93,.04-1.36-.1-.27-.17-.56-.21-.87-1.29-12.36-2.47-24.65-3.66-36.93-.32-3.27-.6-6.54-.89-9.81-.44-4.91-.87-9.8-1.43-14.71C3.18,17.4,1.94,8.73,0,0,2.6,6.71,4.82,13.42,6.72,20.25c1.28,4.6,2.42,9.2,3.4,13.85,1.11,5.23,2.08,10.47,2.86,15.77,1.74,11.76,2.77,23.65,4.21,35.54,49.03-10.35,98.8-17.15,148.81-20.76,48.11-3.47,96.45-3.99,144.59-1.63h0Z"/></svg>