<?xml version="1.0" encoding="UTF-8"?>
<svg id="Calque_1" xmlns="http://www.w3.org/2000/svg" viewBox="0 0 1035.6 119.8">
    <defs>
        <style>.cls-1{fill:aqua;opacity:.7;}</style>
    </defs>
    <path class="cls-1"
          d="M195,119.8c-22.3-11.3-179.1,.8-190.9-2.6-9.7-4.6-.3-84.8,7.6-96.6,2.8-4.2,6.3-4.9,14.5-2.9,13.1,3.7,178.8-3.1,178.8-3.1,2.4,2.5,8.4-5.9,9.8-2.8,4.3,7.1,272.9-1.9,295.9-2.2,13.9-.2,3.2,4.6,19.5,2.7,34.7-3.8,111,.1,137.2-4.2,20.9-3.6,25.5-3.7,46-.7,21,2.7,131.1-.8,143.4-6.4,3-1.5,5.4-1,5.5,.8,0,.4,78,1.9,78.4,3.3,.7,1.8,3.1,2.6,5.3,1.4,3.9-1.8,86.3-8.4,88-3.2,5.1,14.9-1.9,78-10.5,93.4-8.7,16.4-64.1-2.2-106.9,7.6l-202.4,.5-43,6c-5.3-5.4-23.5,8-35.7-1.5-5.1-3.8-39.6-4.5-47-.5-6.4,3.1-183.3-5.2-200.7,5.5-32.8-9.1-162.7,3.4-192.8,5.5Z"/>
</svg>
