<?xml version="1.0" encoding="UTF-8"?><svg id="Calque_2" xmlns="http://www.w3.org/2000/svg" viewBox="0 0 269.38 49.1"><defs><style>.cls-1{fill-rule:evenodd;}</style></defs><path class="cls-1" d="M217.4,.06c5.17,1.34,10.14,2.88,15.16,4.66,2.83,1,5.6,2.02,8.38,3.14,1.82,.73,3.62,1.51,5.42,2.29,5.13,2.22,10.27,4.41,15.63,6.08,.64,.02,1.25,.21,1.77,.53,.95,.27,1.92,.53,2.89,.77,1.94,.5,3.11,2.48,2.61,4.42-.32,1.25-1.26,2.19-2.41,2.55-.54,.51-1.24,.86-2.03,.97-2.78,.34-5.63,1.16-8.46,2.17-4.44,1.59-8.82,3.7-12.71,5.65-3.29,1.49-6.45,3.04-9.64,4.48-3.26,1.47-6.46,2.83-9.65,4.38-4.23,2.07-8.33,4.24-12.42,6.95,4.24-4.6,8.62-8.52,13.41-12.13,2.89-2.17,5.84-4.21,8.96-6.14,2.01-1.24,4.11-2.37,6.22-3.57,2-1.07,4.13-2.19,6.33-3.27-31.82,1.12-63.56,2.69-95.23,4.78-15.75,1.04-31.48,2.17-47.2,3.54-13.97,1.22-27.93,2.58-41.88,4.2-20.88,2.42-41.72,5.34-62.54,9.02,21.5-4.95,43.04-9.18,64.7-12.67,21.74-3.51,43.53-6.4,65.41-8.65,13.12-1.35,26.28-2.42,39.45-3.36,25.01-1.78,50.09-2.97,75.22-3.96-.1-.05-.2-.1-.31-.15-1.92-.96-3.82-1.95-5.68-3.03-1.86-1.07-3.65-2.21-5.45-3.37-5.33-3.45-10.4-7.01-15.91-10.18l-.26-.15,.25,.06h0Z"/></svg>