<?xml version="1.0" encoding="UTF-8"?><svg id="Calque_1" xmlns="http://www.w3.org/2000/svg" viewBox="0 0 18.6 1677.8"><defs><style>.cls-1{opacity:0;}.cls-2{fill:#000;}.cls-3{fill:#000;opacity:.7;}</style></defs><g class="cls-1"><g><rect class="cls-2" x="-698.4" y="2375.6" width="1400.9" height="1.1" transform="translate(-2369.6 2229.1) rotate(-86.4)"/><rect class="cls-2" x="-174.1" y="728.4" width="1.1" height="1958.8" transform="translate(-1867.2 1427.4) rotate(-86.4)"/></g></g><path class="cls-3" d="M9.9,1361.5c-1.1,36.3-2.1,290.4-2.5,309.4-.5,15.7-6.3,1.5-7.1-11.1-.3-4.4-.3-10.1,0-23.5,.4-21.3,2-289.7,2-289.7,.2-3.9-.3-13.5,0-15.8,.6-7.1,3.2-442.4,3.5-479.6,.2-22.5,.4-5.3,.4-31.6,.1-56.2,1.4-180,1.4-222.3,0-33.9,0-41.3,.5-74.6,.5-34,1.5-212.6,1.3-232.3,0-4.8,0-8.7,.1-8.9,0,0,1.1-126.4,1.2-127.1,.1-1.2,.2-5.1,.2-8.5,0-6.3,.4-139.9,.8-142.7,1.2-8.4,5.8,2.2,6.8,15.9,1.1,13.9-.9,103.9-.7,173.2l-2.4,328v69.6c-.5,8.7,.2,38.1-.6,57.9-.3,8.4-.8,64.3-.6,76.2,.2,10.3-2.6,297.2-2.1,325.2-1.1,53.3-1.7,263.6-2,312.5Z"/></svg>
