<?xml version="1.0" encoding="UTF-8"?><svg id="Calque_2" xmlns="http://www.w3.org/2000/svg" viewBox="0 0 444 1124"><defs><style>.cls-1{fill:#000;}.cls-2{opacity:.6;}</style></defs><g class="cls-2"><g><path class="cls-1" d="M162.49,1101.88c2.44-15.48,4.96-33.4,2.18-23.6-1.94,15.43-3.03,19.04-5.02,35.67-2.36,13.13-4.63,22.81-4.57,20.53-.63,4.68-4.06,20.31-4.78,27.48,3.97-16.9,8.09-38.5,11.72-61.17,1.13-4.8,.5-.06,.47,1.08Z"/><path class="cls-1" d="M213.85,670.12c1.01-6.06,1.34-8.61,1.3-8.93-.89,5.64-1.62,10.27-1.3,8.93Z"/><path class="cls-1" d="M189.66,805.8c.52-2.91,.96-5.36,1.43-8-.61,3.04-1.18,6.1-1.43,8Z"/><path class="cls-1" d="M193.48,924.91c-.79,4.45-1.4,8.16-1.92,11.56,.65-3.65,1.29-7.18,1.94-10.83-.02-.21-.03-.38-.02-.73Z"/><path class="cls-1" d="M340.57,171.85l-1.22,6.44c-.25,1.92-.45,3.72-.61,5.43l1.83-11.87Z"/><path class="cls-1" d="M290.03,440.2c1.18-6.06,.75-8.33,.83-10.72-.31,3.49-.99,8.01-1.93,13.34,.14,.13,.48-.63,1.1-2.62Z"/><path class="cls-1" d="M208.2,865.41l-1.31,7.57c.34-1.97,.92-5.29,1.31-7.57Z"/><path class="cls-1" d="M275.42,346.92c0,.23,.12-.06,.15,.02,.34-1.55,.42-2.04-.15-.02Z"/><path class="cls-1" d="M364.21,43.06l-1.13,4.24c.03,.5,.05,1,.2,1.04l.93-5.28Z"/><path class="cls-1" d="M146.29,1054.25c.09-.48,.12-.65,.2-1.1,1.02-6.56,.4-2.85-.2,1.1Z"/><path class="cls-1" d="M228.59,637.86c8.18-24.93-11.21,41.2,.82,3.58-1.36,3.43,8.95-34.78-.82-3.58Z"/><path class="cls-1" d="M194.9,917.98c.68-3.62,1.37-7.31,2.07-11-.97,5-1.61,8.38-2.07,11Z"/><path class="cls-1" d="M229.41,641.44h0s1.24-3.88,1.24-3.88c-.51,1.61-.8,2.51-1.24,3.88Z"/><path class="cls-1" d="M138.16,864.08c-.51,1.08-1.35,3.25-2.2,5.51,.14-.16,.66-1.4,2.2-5.51Z"/><path class="cls-1" d="M207.35,650.21c1.88-5.51,2.61-7.36,4.99-14.95-.27,.69-.53,1.37-.85,2.26-.79,2.77-1.94,6.42-4.14,12.68Z"/><path class="cls-1" d="M280.54,427.99c-.43,1.16-1.01,2.7-1.51,4.05-.71,2.21-1.54,4.78-2.28,7.06l3.79-11.1Z"/><path class="cls-1" d="M64.55,1113.81c2.98-10.29,4.84-16.69,6.28-21.68-1.21,4.08-2,6.6-2.63,8.54-.49,1.48-1.12,3.39-1.47,4.44-.39,1.19-.71,2.23-1.03,3.51-.33,1.29-.66,2.79-1.15,5.2Z"/><path class="cls-1" d="M193.97,924.88c.05-1.38,.31-3.37,.93-6.9-.48,2.64-.95,5.18-1.4,7.66,0,.69,.09,.86,.47-.76Z"/><path class="cls-1" d="M204.01,639.1l11.75-35.27c-3.33,9.84-7.6,22.66-11.75,35.27Z"/><path class="cls-1" d="M303.12,191.67l1.88-8.32c-.78,3.19-1.46,6.14-1.88,8.32Z"/><path class="cls-1" d="M250.15,499.02c2.36-6.21,4.72-12.84,7.1-19.7,.42-1.48,.92-3.17,1.14-4.17l-8.25,23.87Z"/><path class="cls-1" d="M70.91,1091.87q-.08,.26-.08,.26s0,0,.08-.26Z"/><path class="cls-1" d="M128.92,870.96c-4.75,17.08-7.25,26.31-8.23,30.23-.98,3.95-.47,2.69,.63-.62,2.38-7.38,3.09-9.56,4.24-13.12,1.45-4.51,2.68-8.21,3.01-8.82-4.04,14.82-6.89,25.04-9.26,33.31-2.36,8.23-4.2,14.36-5.9,19.89-3.26,10.5-2.53,8.13-5.11,16.45-1.87,6.05-4.06,13.27-7.2,24.04-2.72,10.06-4.74,17.76-6.28,23.83-1.55,6.09-2.63,10.56-3.6,14.56-.97,4.01-1.81,7.56-2.98,12.1-1.17,4.55-2.65,10.11-4.97,18.41-1.12,3.81-3.15,10.68-4.04,13.69-1.14,3.85-2.04,6.8-2.46,7.88-.28,1.54-1.33,5.66-2.99,11.9,.73-1.89,.6-.87,.22,1.02-.48,2.22-.98,4.54-1.47,6.85-.46,2.19-.75,3.81-.64,4.06,.1,.27,.59-.79,1.58-3.58-1.46,5.02-2.19,7.55-2.56,8.82,3.7-12.48,5.83-19.68,6.85-23.15,4.1-13.64,2.43-8.1,5.49-18.25-.73,2.71-1.12,4.28-1.44,5.63-.34,1.4-.66,2.71-.95,3.9-.74,2.91-1.95,7.28-4.57,16.23,2.01-7.38,.37-1.99-.38,.16-.21,1.09-.52,2.53-.93,4.32-2.12,7.31-2.94,10.09-3.25,11.02-.3,.88-.03-.25,.33-1.73,.36-1.48,.83-3.36,.88-3.75,.05-.4-.36,.79-1.7,5.25-.33,1.69-.61,3.24-1.07,5.37-.45,2.12-1.08,4.82-1.93,8.26-.84,3.41-1.91,7.54-3.07,11.96-1.29,4.84-2.49,9.34-3.55,13.32-.53,1.86-.24,.68,.24-1.25,.52-2.07,1.22-4.88,1.83-7.31,.61-2.43,1.08-4.34,.96-4.01-.06,.16-.27,.89-.66,2.28-.29,1.08-.82,3.03-1.65,6.1,1.55-6.1,3.4-13.18,5.55-21.25-1.47,5.15-2.42,8.49-2.99,10.49-.94,3.24-1.04,3.58-1.17,4.03-.38,1.24-.13,.18,.12-.88,.25-1.06,.5-2.12-.02-.45-.34,1.16-.21,.69-1.4,4.74-.49,1.72-1.36,4.77-2.74,9.6-.49,2.35-.65,3.49-.73,4.31-.08,.81-.09,1.27-.12,1.81-.03,.53-.09,1.12-.22,1.98-.13,.86-.34,2.01-.61,3.46,.49-1.23,1.15-2.96,1.81-4.5,.4-1.23,.72-2.27,.94-3.03,.22-.77,.36-1.29,.47-1.75,.12-.47,.23-.89,.45-1.68,.1-.34,.44-1.47,1.25-4.17,1.55-4.87,2.87-9.01,4-12.57,1.05-3.25,1.75-5.33,2.11-6.28,.75-1.95,.14,.74-.8,4.6-.93,3.81-2.18,8.73-2.51,10.47-.16,.85-.08,.9,.46-.69,.55-1.61,1.56-4.81,3.43-11.02,4.2-14.59,7.12-24.71,11.88-41.21,2-6.87,3.84-13.15,5.17-17.45,1.31-4.24,2.13-6.6,1.7-4.32l-13.8,48.63c.49-1.17,1.29-3.57,2.36-7.05,1.07-3.47,2.4-7.98,3.87-13.03,3.73-12.94,5.91-20.51,9.15-31.76,2.72-9.39,5.27-18.11,7.77-26.45,2.52-8.39,4.95-16.31,7.79-25.22-4.45,15.57-10.05,34.52-14.29,48.83-4.24,14.29-7.1,23.85-6.18,21.02,.58-1.53,1.4-3.99,2.34-6.96,.94-2.98,2.01-6.49,3.15-10.31,2.29-7.67,4.85-16.58,7.54-25.99,2.6-9.13,4.95-17.37,8.34-29.25,2.84-9.9,5.66-19.62,8.48-28.98l-7.1,27.15c25.98-87.57,54.6-184.02,83.38-281.02-.59,2.49-2,7.7-2.5,9.94-.49,2.18-.09,1.39,3.35-9.51,2.86-9.68,5.77-19.52,8.72-29.48,2.69-8.98,5.4-18.07,8.14-27.22,5.54-18.28,11.16-36.81,16.76-55.27,11.27-36.89,22.59-73.43,33-107.01l6.89-25.97c1.81-5.98,3.72-10.99,1.93-4.46,8.21-26.14-.13-1.52,3.34-14.23,4.43-14.94,6.42-19.58,3.82-10.04,13.21-46.52,38.13-132.36,53.7-180.87l-2.61,9.59c11.77-37.88,11.16-43.39,22.55-78.38l-1.88,6.8c25.16-82.33,51.79-173.68,71.98-236.2,.19-.97,.5-2.29,.93-3.95,.05-.21,.11-.42,.17-.64,.1-.35,.2-.7,.3-1.06,.21-.74,.43-1.52,.66-2.32,.46-1.6,.96-3.33,1.49-5.19-4.14-.71-8.98-1.53-14.26-2.43-4.03-.72-8.4-1.49-12.91-2.29-9.95-1.79-20.53-3.68-30-5.38-1.08,4.57-2.1,8.92-3.04,12.92-.72,3.14-1.36,6-1.89,8.49-1.06,4.97-1.67,8.43-1.58,9.53-12.23,47.62-9.28,33.85-25.88,101.07-4.36,17.96-5.3,27.07-10.42,49.35l-1.03,.33-6.24,30.42-4.9,15.81-4.73,20.92c2.03-8.3,4.61-17.57,4.56-16.24-3.67,16.34-8.55,36.16-12.6,51.98-2.02,7.91-3.84,14.82-5.18,19.8-1.35,4.98-2.23,8.02-2.4,8.19l-17.58,77.27c.05-1.8,2.99-14.74,5.19-25-8.87,41.37-2.73,7.25-10.86,45.16,1.41-5.01-.11,2.86-.14,3.76-5.02,18.67-15.2,61.45-22.5,93.17l.83-6.22c-13.76,57.14-28.38,120.61-43.66,184.78,5.77-22.95,5.58-17.41,1.21,1.44l-2.74,7.3c-2.3,12.29,5.03-19.57-.18,5.54-5.81,23.95-4.92,15.86-1.95,2.02l-6.6,29.22c-.69,1.64,.78-5.23,.85-7.09-2.25,12.1-12.92,50.08-16,67.58l-.67,1.58c-15.27,64.15-21.86,93.32-34.25,145.59,.58,1.22-4.47,21.61-7.51,37.34-4.74,19.16-9.74,39.37-14.98,60.56-2.6,10.6-5.26,21.45-7.98,32.53-4.54,19-9.18,38.4-13.91,58.2-3.1,13.47-4.66,20.47-5.41,24.01-.74,3.52-.66,3.56-.35,2.7,.3-.87,.83-2.65,1.04-3.09,.22-.46,.12,.43-.71,4.45-.63,2.09-1.63,5.84-2.86,10.62-1.14,4.54-2.62,10.42-4.17,16.57-3.07,12.37-6.4,25.81-7.85,31.64-.46,2.04-.82,3.36-1.25,4.21,.03-.33,.48-2.4,1.2-5.67-.81,3.42-1.6,6.76-1.9,8.02-.15,3.91-.35,7.22-.58,10.59-.24,3.42-.51,6.87-1.14,12.24,.67-1.57,1.6-3.8,2.85-7.01,1.25-3.21,2.82-7.38,4.83-13-.19-.13-.62,.69-.85,1.02-.22,.32-.25,.2,.41-2.05,1.32-4,2.56-7.43,3.12-8.47,.58-1.12,.49,.16-.26,3.07l-.76,2.37c1.49-4.41,3.01-8.87,4.46-12.98,4.25-14.32,8.6-29,13.02-43.88,4.37-14.52,8.81-29.24,13.27-44.02,4.62-15.2,9.26-30.48,13.87-45.67,3-9.72,5.99-19.39,8.93-28.92,11.76-38.13,22.73-74.06,30.32-102.19l-.95,3.49,18.23-64.39c8.88-29.48-4.7,17.87,2.24-3.84,19.3-69.57,32.61-109.29,48.7-166.52,15.26-43.47,46.28-156.58,65.34-215.72l-1.53,3.29c4.06-15.53,5.81-18.53,9.3-29.83-.87,1.49-5.41,16.56-2.85,6.92,15.53-53.29,31.81-107.87,48.36-162.88,30.93-103.23,62.12-207.34,93.05-310.58,1.24-6.24,1.64-9.91,1.39-11.6-.08-.33-.38,.09-.74,.78-.36,.7-.8,1.67-1.23,2.7-.99,2.43-1.66,4.07-2.35,5.78-.6,1.42-.9,1.91-.57,.26,.16-.81,.48-2.15,.92-3.95,.43-1.76,.93-3.83,1.53-6.31-.21,.52-.54,1.32-.89,2.19,.36-.94,.66-1.67,.89-2.2-.14,.77-.15,1.14-.04,1.11-.02-.29,0-.66,.04-1.12-.86,1.5-2.04,4.05-3.3,6.89-1.31,3-2.62,6-3.94,9.01-1.32,3.02-2.6,5.91-3.81,8.55-1.21,2.66-2.35,5.07-3.48,7.47-13.07,39.73-26.1,79.31-39,118.52-6.52,19.95-13.02,39.81-19.47,59.55-6.29,19.38-12.55,38.65-18.75,57.77,3.36-10.93,3.83-13.32,9.4-30.2-2.69,7.6-7.03,20.47-11.92,35.23-2.45,7.43-5.01,15.22-7.59,23.05-1.99,6.12-3.98,12.26-5.9,18.18-2.59,8.12-4.95,15.64-6.62,21.16-.84,2.76-1.51,5.02-1.95,6.6-.45,1.59-.67,2.5-.61,2.56-4.97,14.88-1.64,3.29-4.95,12.37-7.08,20.14-15.88,51.17-20.11,61.71-.71,1.8,1.65-5.77,2.82-9.5-4.02,13.32-20.36,61.52-15.4,49.13-12.2,35.79-22.27,68.81-32.18,97.3-5.27,18.97-20.67,61.33-21.38,67.67-.44-3-21.77,62.61-28.65,85.52,2.11-7.73-6.91,19.61-4.51,10.53-8.52,25.92-16.1,49.74-13.95,45.44-17.27,47.23-30.36,96.36-41.19,122.58-24.66,77.2-47.65,148.58-70.15,217.91-.46-2.92,25.08-76.57,22.75-74.05-21.1,65.86-32.48,104.11-54.24,169.14-5.73,16.81,2.6-9.76,4.25-15.53-4.13,12.76-8.21,25.36-12.23,37.78-4.48,13.64-8.9,27.1-13.24,40.34,18,2.6,35.68,5.15,53.09,7.66,17.16,2.41,34.05,4.79,50.7,7.13,.67-4.1,1.34-8.18,2-12.23,.49-3.08,.98-6.15,1.47-9.21,.05,.09-.17,1.78-.52,4.22-.36,2.44-.84,5.63-1.31,8.72,1.99-11.96,4.92-27.75,4.09-26.5l-1.82,11.67c-4.12,18.92,6.23-47.74,6.13-49.96-1.71,20.57,10.62-59.79,7.34-27.21,1.22-7.88,2.61-17.79,1.9-16.06,2.1-11.64,2.97-15.31,1.42-3.4,6.95-42.84,3.72-27.75,10.33-66.51,.27,.19-.95,8.03-1.28,12.1,2.77-19.72,5.55-39.54,11.37-72.25-.16,2,.72-1.76-.95,8.01,9.48-56.27,14.79-96.14,25.84-157.76-1.82,18.42,3.99-20.92,5.65-24l5.32-33.24-2.8,13.23c4.96-29.07,8.53-54.89,13.15-79.82l-3.22,21.68,9.06-54.51-5.66,30.76c4.44-29.51-1.93,2.91,4.96-35.73-1.23,7.88,4.96-29.08,8.19-44.12v.1c2.08-14.44,4.23-29.3,8.16-50.75,1.3-5.53,.46,4.7,1.31,1.1,1.49-14.34,11.33-68.12,13.4-86.25-.79,6.03-.26,6.44,.19,4.49l1.28-12.04c2.53-13.42,2.98-15.38,3.07-13.11,7.03-40.48-3.59,12.63,5.19-35.34-.58,3.78-.16,2-1.39,9.88,8.53-48.23,15.4-93.37,23.31-137.67,3.34-12.9-6.32,38.81-2.84,23.98,10.68-64,21.21-132.69,32-194.54l-2.09,11.51c-.11-8.85,8.62-45.97,13.21-77.4-1.19,7.68-.84,10.2-.66,8.1,2.63-14.91,5.19-30.07,7.86-46.31,2.62-16.14,5.41-33.35,8.5-52.46,8.22-13.4,17.31-28.24,27.32-44.57l-3.93,7.06c4.96-7.69,10.98-17.2,17.33-27.29,4.49-7.14,9.23-14.69,13.69-21.78-1.04,5.31-2.02,10.32-2.87,14.71l-.03,.24-.06,.39c-.04,.27-.08,.54-.12,.81-.08,.55-.17,1.13-.26,1.71-.19,1.17-.38,2.4-.58,3.61-.4,2.43-.79,4.82-1.09,6.67-.59,3.7-.74,5.23,.43,.61-17.95,82.5-28.66,158.44-44.47,231.66,1.66-8.8,3.61-21.04,2.29-14.04l-11.47,62.75c1.62-4.83,1.96-8.14,4.98-21.21-1.09,8.01-4.12,25.76-7.06,41.29,4.87-28.27-1.14,.04-3.82,12.14,.59-2,.04,2.21,.44,1.22-7.4,32.52,.33,5.75-8.93,50.3l.09-2.43c-2.98,16.77-5.42,32.27-8.93,50.3-2.2,7.33,3-17.88,2.57-19.15-4.74,25.35-7.95,50.29-13.07,73.07,1.81-10.8,4.73-26.29,6.55-37.09-5.64,24.8-5.96,27.74-9.61,46.27l.37-1.82-8.52,42.83,2.32-10.88c-3.94,32.1-11.82,64.65-18.55,107.62,6.57-41.76,.56-7,.27-10.35-2.31,10.86-5.72,27.39-5.08,22.62-3.09,20.32-6.93,33.6-11.26,62.29-.53,1.22-4.11,21.6-3.97,16.9-4.73,26.3,1.67-6.11,1.62-3.83-6.66,40.65-19.16,94.89-28.8,153.34-8.93,50.3-9.71,59.76-18.03,106.43-3.43,15.63,1.38-13.07,1.38-13.07-5.21,25.28-8.74,44.37-12.92,68.33,.66-4.89-.49,.06-2.19,7.28-3.55,19.19-1.38,13.02-6.58,38.23,.5-4.4,1.04-10.06,2.46-19.37-3.92,22.67-7.79,45.05-11.85,68.52-1.67,6.11,1.91-14.26,3.14-22.57-4.74,26.34-12.42,68.22-13.16,76.49l3.47-16.81c-1.77,9.59-1.61,4.8-.42-2.3,3.63-22.65,6.41-32.45,6.94-33.67l-2.96,16.7c4.92-16.79,12.37-66.97,18.8-100.49l-1.41,14.21,5.48-34.6c1.7-7.25,3.33-12.13,.39,4.47,5.15-23.93,3.58-21.37,8.16-41.9,.54-2.26,.4-1.22,.05,.9l4.07-23.56c-.61,4.65,1.6-3.74-1.3,10.66,8.67-42.04,11.93-68.18,15.85-83.88l-.59,3.54c10.64-58.59,.17-5.83,7.4-49.91l7.8-29.11,.19-5.92c1.17-6.03,3.5-17.96,3.44-15.68,3.63-22.58-1.11,3.76,.77-9.39,6.31-28.9,14.75-80.18,17.42-86.46,1.29-10.56-5.78,27.69-.39-3.42,3.21-8.56,6.51-35.91,12.23-62.31-.74,8.3-5.92,33.36-.19,6.94,1.68-16.27,10.06-51.63,14.03-74.06-.44-.63,1.75-12.82,4.89-29.56s7.23-38.02,10.6-56.84c-.09,2.44,13.94-70.58,20.93-105.45v1.06c.18-6.97,7.2-42.98,11.93-69.27,.45,1.15-.18,5.92-2.58,20.2l4.66-24.67c.75-5.89,2.02-13.62,4.92-29.65l-.36,6.36c6.16-32.85,11.54-66.32,20.06-108.47-.31-2.52-8.45,33.21-.51-11.57,.72-1.58,1.73-3.1-.31,8.63,.67-3.84,2.24-13.72,3.87-21.41l-2.69,17.98c3.94-19.19,1.33-10.17,4.3-25.55,.52,.41,2.57-11.31,2.61-9.01-.69,3.94-2.78,13.38-3.66,19.31,3.38-17.33,7.69-38.24,9.44-45.08-.62,1.45-.78-.15,1.54-12.87,6.16-32.85,2.82-11.11,6.74-30.21,1.1-8.03,5.47-28.9,4.71-29.62,1.82-9.61,2.56-11.31,3.5-14.98,.31-1.78,.7-4.06,1.16-6.68,.6-3.29,1.28-7.01,2-11,1.66-8.97,3.54-19.09,5.32-28.7-7.43,11.97-14.22,22.95-17.94,29.11-.46,.77-.88,1.46-1.25,2.08-.26,.46-.49,.85-.68,1.19-.38,.67-.6,1.1-.64,1.25-.04,.14,.11,0,.47-.47,.18-.24,.41-.55,.7-.96,.14-.2,.3-.43,.48-.67,.21-.3,.43-.63,.68-.99l2.98-4.64c-.54,.89-1.18,1.93-1.84,3.02l.09-.15-.09,.15c-3.91,6.4-7.85,12.86-11.83,19.37-3.92,6.31-7.87,12.67-11.83,19.05-4,6.36-8.02,12.75-12.04,19.16-4.08,6.45-8.17,12.91-12.25,19.36-2.49,14.1-4.97,28.17-7.42,42.1-2.42,13.86-4.76,27.58-6.96,41.04l-.28-.14c-5.3,33.16-12.34,73.72-15.73,97.46-1.67,9.79-4.47,23.02-4.1,18.77-4.09,25.34-4.24,28.24-10.94,64.71,3.82-25.53-1.94,8.7,4.06-26.14-5.85,32.84-7.58,40.21-12.79,75.65,1.3-12.14-5.15,24.59-7.59,40.26l4.46-22.95c-2.88,17.59-5.56,32.95-8.28,48.55l.45-8.61c-12.65,67.09-18.61,121.69-29.33,172.58-2.34,17.92,6.7-36.46,4.8-20.41-5.4,30.93-12.3,62.94-13.95,72.63-7.76,42.3-5.29,39.8-13.21,84.11,1.32-5.61,3.16-10.81-2.15,22.4-5.4,30.96-7.95,37.82-4.9,18.22,1.23-7.43,1.96-11,2.02-10.66,1.57-10.03,3.66-23.19,1.19-10.99l-.33,4.08c-2.97,15.31-10.19,57.93-9.06,47.82-3.65,23.46-1.13,10.11,2.01-7.2-7.27,39.64-10.58,62.07-17.87,102.9,1.3-6.47,2.73-12.39,1.63-5.92-10.64,59.91-3.83,26.52-10.59,67.19-4.46,23,.13-8.49-6.38,32.49-4.61,24.92-1.83,5.13-.43-4.85-5.67,37.39-12.29,69.57-16.04,90.83l3.06-19.68c-1.83,11.77-3.47,21.38-5.14,31.17l2.61-11.09c-1.04,5.75-1.99,11.07-2.69,14.91-.71,3.85-1.19,6.22-1.32,6.09-1.56,11.96,2.71-8.89-.67,14.79-2.97,15.31-7.58,46.86-9.41,52.02,8.54-48.28-1.84,5.18,4.97-35.75-1.23,7.91-2.87,17.53-4.96,29.08-.4,1.72,.09-1.67,.57-4.83-8.7,46.11-2.56,21.44-10.74,69.37,.51-6.18-2.89,10.94-4.1,18.78,3.3-19.32,2.45-9.09-.17,8.7-2.61,14.19-3.95,22.41-4.93,28.79-.84,5.54-1.43,9.47-2.32,15.4-.36-.05-.93-.13-1.54-.22l1.57,.26,1-5.37,1.38-7.65c-.13,1.54-.39,3.61-.76,6.19-.31,2.1-.69,4.62-1.12,7.52-6.9-.95-15.76-2.16-26.12-3.58-1.78-.68,19.57,2.54,11.92,1.25-11.25-1.18-23.78-3.18-37.35-5.39-6.79-1.1-13.84-2.24-21.12-3.42-3.64-.56-7.34-1.12-11.1-1.7-1.88-.27-3.77-.55-5.67-.82-.94-.12-1.88-.25-2.83-.37,.31-1.04,.63-2.11,.95-3.18,5.22-14.69,1.42-1.12,5.94-14.05,11.14-36.03,13.47-38.56,25.33-76.39-4.25,10.62-4.71,12.58,3.36-14.15l-19.91,62.05,12.09-40.04c-6.16,18.67-12.55,39.56-16.36,50.71,5.68-19.11,5.21-17.11,1.7-8.35,9.44-25.22,16.09-50.87,26.51-80.18l1.39,1.46c15.38-44.17,25.13-79.2,44.55-136.73l-6.4,18.44c1.88-7.95,11.64-35.64,17.52-54.41,0,1.92,4.04-9.68,7.02-17.54-.74,.83,13.94-42.2,14.54-47.81l9.22-25.5c15.64-46.47,15.9-53.67,30.84-98.38-3.83,13.69,3.27-6.53-6.17,23.61,2.46-7.47,4.8-14.57,6.54-19.83,1.71-5.27,2.76-8.71,2.61-8.89,3.23-8.62,12.89-41.69,17.95-55.26,1.83-6.38,1.92-8.64,7.49-25.4,.72-1.79,.26,.16,.26,.16-.26-.16,8.27-26.39,2.82-11.94,16.92-45.46,42.26-128.72,56.97-168.32,10.55-32.68,23.32-72.04,33.03-101.67-.46,1.95,.25,.19-1.65,5.77,13.98-40.67,6.66-25.64,22.55-71.94,8.73-23.45-7.64,24.85-2.42,10.16,1.99-2.92,6.54-16.96,12.03-34.14,1.69-5.34,3.53-11.16,5.33-16.86,1.54-4.74,3.11-9.24,3.61-9.88l-1.3,4.32c.54-1.1,1.2-2.99,2.22-6.21,1.3-4.21,2.7-8.76,4.19-13.58,1.94-6.26,3.99-12.88,6.13-19.79,2.19-6.96,4.42-13.93,5.88-18.26,0,0,.82-2.8-2.49,8.5,2.12-6.89,4.61-14.94,7.61-24.69,5.58-17.92,11.75-37.37,17.99-56.87,6.29-19.54,12.73-39.54,18.38-57.08-5.91,18.85-10.22,32.6-12.16,38.77-4.03,13.12-1.18,3.85-8.7,28.3,2.42-7.51,7.18-22.97,12.55-40.3,.86-2.77,2.76-8.85,8.61-27.63,3.04-9.66,6.27-19.83,9.62-30.19-1.48,5-3.86,13.05-5.97,20.22-2.1,6.87-4.07,13.33-5.63,18.41-4.77,15.34-8.26,26.56-9.58,30.83l-6.41,19.61c-1.5,4.89-3.11,10.14-4.81,15.66-.97,3.18-1.35,4.45-1.27,4.29,.14-.31,2.1-6.47,4.55-14.16,.62-1.87,1.4-4.26,1.67-5.01,.28-.77,.05,.08-1.26,4.33l-8.39,26.62c-.75,2.65-.07,.72,1.07-2.64,1.54-4.62,2.8-8.37,4.08-12.2,1.31-3.89,2.31-6.74,2.21-6.05-.09,.66-1.31,4.97-4.15,14.49l5.55-17.47c1.56-4.51,1.92-5.34,1.68-4.34-.25,1.03-1.13,3.92-2.25,7.53-2.5,7.98-4.38,13.99-7.34,23.43-.68,2.22-1.19,3.94-1.47,4.97-.27,1.04-.31,1.39-.09,1.06l-12.57,38.2c-.11,.62-.25,1.46-.63,3.2-.38,1.72-1.02,4.37-2.02,8.24-.99,3.84-2.35,8.9-3.98,14.81-1.63,5.89-3.52,12.62-5.42,19.23,.56-2.65,1.29-5.81,2.03-8.89,.64-2.68,1.36-5.65,2.08-8.69,1.23-5.17,1.99-8.57,1.51-7.86-1.25,4.21-3.07,10.39-4.54,15.71-.74,2.67-1.42,5.17-1.91,7.16-.49,1.97-.8,3.44-.73,3.7,.36-1.45,.77-3.09,1.17-4.73,.4-1.59,.89-3.31,1.91-6.45,.49,0-.92,5.97-3.7,16.14-1.39,5.07-3.1,11.16-5.04,17.89-2.5,8.5-5.13,17.45-7.89,26.84-.23-7.31-29.6,97.74-39.39,124.47-18.9,66.68-39.45,131.71-62.28,209.16,9.86-26.95-6.66,22.61-3.49,18.38-5.24,18.06-7.31,24.93-7.9,26.51l-17.26,54.33c-4.35,12.8,4.7-17.26,3.81-15.72-11.85,39.44-5.66,16.34-13.88,42.33,2.22-5.17-3.17,13.99-10.09,36.43l10.21-31.45c-15.43,55.45-15.62,47.25-31.19,103.13l4.66-17.75c-8.14,28.63-31.24,105.27-38.12,133.66-1.7,4.99-4.16,11.51-.56-1.08-3.5,11.66-7.08,23.8-10.69,36.16-1.8,6.18-3.61,12.42-5.43,18.68l-1.36,4.7-.68,2.35-.19,.69-.68,2.56c-1.21,4.46-2.42,8.92-3.6,13.28-1.57,5.6-3.11,11.09-4.59,16.36-1.44,5.04-2.82,9.74-3.78,12.91-.96,3.16-1.52,4.75-1.25,3.36l3.87-14.61c-1.47,5.4-2.78,10.2-4.13,15.17-1.59,5.84-3.11,11.32-3.08,10.96,.52-2,1.06-4.11,1.64-6.35,.5-1.84,2.03-7.53,2.56-9.5,.25-.94,.14-.54,1.8-6.79-.23,.79-.62,2.17-1.12,3.92-.42,1.44-.81,2.72-1.02,3.26-.21,.55-.22,.36,.02-.78,.24-1.14,.75-3.21,1.52-6.19,.71-2.25,1.54-5,2.48-8.26,.69-2.72,1.34-5.29,1.96-7.74,.42-1.71,.65-2.75,.8-3.54,.25-1.31,.29-1.98,.42-3.17,.13-1.16,.35-2.83,.82-5.54,.23-1.35,.53-2.95,.89-4.82,.2-1,.39-2,.59-3.01,.11-.55,.22-1.1,.34-1.66l.18-.87,.3-1.39c2.18-9.76,4.47-19.9,7-30.78,.62,.23,4.2-12.92,8.43-29.42,4.23-16.5,9.13-36.37,12.38-49.6l-.04,.97c18.86-78.56,30.7-133.77,47.51-206.68,12.14-44.85,37-152.91,55.05-225.34-2.87,11.05-.57-2.05,2.37-14.99,4.31-16.98,10.32-47.32,10.85-44.34l-1.47,6.07c4.21-12.57,12.24-47.66,18.77-75l-.47-4.88c19.26-70.99,43.76-187.6,55.06-226.16,3.72-17.35,8.81-38.73,12.5-55.93l.61,1.12c4.98-20.59,8.88-36.73,12.96-53.59,3.75-15.8,7.67-32.27,12.89-54.24,.16,.02,.36,.06,.6,.09,1.09,.19,2.33,.4,3.7,.64,3.39,.59,7.36,1.27,11.5,1.99l-12.31-1.56c10.02,1.79,17.89,2.96,24.81,3.87,3.46,.46,6.69,.85,9.83,1.22,.79,.09,1.57,.18,2.34,.27,.72,.08,1.78,.22,1.81,.18,.53,0,1.15,.02,1.87,.05-.04,.35-.09,.73-.16,1.17-.09,.5-.07,.65-.43,2.01-.56,2.19-1.14,4.46-1.76,6.86-1.26,4.79-2.74,10.08-4.58,16.23l-3.95,8.74c-17.2,57.26-35.7,114.9-51.61,171.81,.1-.98,.26-2.77,3-12.06-8.14,26.95-32.18,104.01-27.57,94.73-.32,.09-1.6,3.82-3.47,9.86s-4.34,14.38-7.05,23.68c-5.41,18.6-11.76,41.04-16.17,56.58l.65-5.05c-6.83,26.41-6.8,27.33-17.48,63.86-2.7,8.61-2.92,7.38,.74-4.04-9.08,28.66-5.99,22.66-16.91,57.43l3.4-13.16c-8.97,29.6-7.99,27.33-12.29,43.81-5.28,18.72-17.1,56.12-19.14,60.27-.76,4.12-5.05,20.52-10.5,37.91-.98,2.27,.76-4.13,1.64-7.35-15.44,49.35-21.21,73.91-32.24,107.73-.48,.63-1.28,2.81-2.21,5.61,11.85-39.33,21.42-71,20.59-68.02-.74-.22-10.42,31.52-3.84,5.93-3.56,12.84-8.38,30.23-13.39,48.32-2.54,9.03-5.15,18.23-7.74,27.09-1.28,4.33-2.54,8.58-3.76,12.7-.52,1.72-1.03,3.37-1.5,4.77-.19,.38-.36,.68-.47,.62l.32-1.36c-.69,2.03-1.25,4.14-2.03,7.19-.89,2.52-1.24,3.34-2.06,6.04,.34-1.69,.41-2.27,.34-2.26-.07,.02-.3,.69-.62,1.75-.77,2.6-1.65,5.58-2.22,7.52-.46,1.76-1.05,4.08-3.04,11.76-.7,2.64-1.6,6.01-2.22,8.36-1.21,4.62-1,3.84-1.76,6.72-.52,2.07-1.01,4.12-1.3,5.68,0-.03,.06-.28,.18-.75,.08-.28,.27-.95,.55-1.97,.42-1.42,1.12-3.82,2.04-6.97,.49-1.74,1.07-3.78,1.39-4.93-.14,.55-.32,1.21-.5,1.93,1.54-5.17,3.55-11.92,5.83-19.59-1.37,5.29-3.01,11.43-4.52,16.77-.75,2.65-1.47,5.08-2.04,6.88-.57,1.8-1,3-1.12,3.01-2.15,8.06-4.41,16.52-6.46,24.22-2.24,8.25-4.27,15.67-5.72,21.02,.35-1.95,.79-4.35,1.25-6.89,.39-2.12,.84-4.36,1.51-7.28,.67-2.91,1.55-6.49,2.73-11.04,1.18-4.55,2.66-10.09,4.46-16.71-1.91,6.61-3.96,13.73-6.08,21.06-4.67,16.06-9.54,32.81-13.91,47.83-11.98,41.49-22.58,78.21-29.88,103.51-1.71,5.85-2.23,7.58-1.94,6.5,1.17-4.16,2.07-7.38,2.84-10.1,3.76-13.23,6.12-21.5,9.47-33.31,3.88-13.37,8.5-29.26,10.6-36.49-4.15,14.14-10.3,35.1-15.66,53.36-4.07,13.92-7.84,26.81-10.79,36.86-8.85,30.48-15.2,52.36-17.46,60.17,1.18-4.34,3.66-12.99,6.39-22.45,2.09-7.2,3.73-12.89,8.17-28.2,2.96-10.23,2.69-9.28,5.11-17.64,.74-2.59,.34-1.29-1.96,6.47,.09-.33,.2-.76,.32-1.23l6.77-23.28,1.45-5.01c.11-.4,.23-.81,.34-1.19,4.43-15.49,8.69-30.35,12.8-44.74,.86-3.06,1.71-6.06,2.55-9.03,.19-.68,.37-1.36,.55-2.03,.11-.44,.16-.65,.16-.66,0-.02-.07,.16-.18,.5-.16,.49-.31,.98-.47,1.47-.53,1.72-1.05,3.43-1.58,5.13-1.48,4.85-2.94,9.64-4.41,14.43-1.52,4.96-2.95,9.53-3.92,12.55-.98,3.02-1.51,4.48-1.35,3.53,.16-.93,1.02-4.27,2.71-10.42,1.69-6.13,4.21-15.09,7.54-26.74,3.52-12.29,7.98-27.69,13.1-45.14-4.03,13.65-6.04,20.47-6.87,23.27,3.62-12.71,7.26-25.51,10.93-38.38,2.74-9.81,5.5-19.68,8.27-29.58,5.08-18.52,10.19-37.16,15.3-55.77,3.67-13.31,7.33-26.61,10.98-39.87,4.24-15.24,8.47-30.44,12.67-45.56,8.46-30.23,16.95-60.13,25.51-89.42,9.6-33.34,9.92-37.15,15.08-57.69l2.89-7,8.69-35.16c13.01-49.66,25.94-85.05,41.95-148.05l-2.83,7.91c6.36-22.46,19.45-71.33,19.08-67.39,.53-2.33,1.44-7.54,4.19-16.25l.65-.56,14.57-55.46c12.23-42.73-.05,7.2,17.41-55.26,6.28-23.28,17.05-66.52,14.33-57.88-2.63,9.37-6.94,23.87-7.59,24.45l5.67-21.31c-.28-4.22,2.89-20.95-12.55,30.94l-9.28,36.57-3.91,11.53,8.46-30.6c-5.44,17.18-7.95,28.33-11,40.75-1.16,2.82-2.82,7.86-4.95,15.03l-8.63,36.04c-1.73,4.18,3.4-16.29-3.54,7.57-4.05,16.88,5.64-15.7-1.66,12.08-5.44,17.22-4.53,12-9.68,32.55-1.14,2.77-.16-1.61,1.93-9.74-4.63,18.28-13.18,48.12-15.07,57.69-5.79,17.91-16.85,61.38-17.62,59.23-1.28,5.79-7.89,32.27-12.48,48.97,6.95-30.9-17.45,62.43-16.84,53.91-4.9,22.94-22.04,81.65-32.38,121.82,.51-2.26,1.51-6.72,2.56-10.22-6.36,22.46-8.59,28.88-12.87,43.26,.33,3.2-9.15,38.3-13.69,57.37-8.75,27.26,3.32-17.11-.13-8.75,1.3-1.13-12.4,48.15-9.02,38.99-.81,2.61-1.51,4.85-2.12,6.8-.94,3.18-1.74,5.86-2.43,8.18-1.44,4.86-2.42,8.17-3.24,10.94-.86,2.86-1.59,5.25-2.56,8.32-1.06,3.3-2.29,7.17-4.1,12.84,.68,.29-1.34,7.82-4.45,18.97-1.53,5.51-3.26,11.74-5.11,18.4-1.73,6.34-3.37,12.59-4.33,16.88-4.17,14.34-7.07,24.11-9.15,31-2.44,7.97-3.41,11.16-4.47,14.63-1.12,3.66-2.11,6.98-3.71,12.71-1.6,5.71-3.84,13.94-7.26,26.65-2.74,9.43-4.16,14.09-4.65,15.46-.5,1.38-.08-.54,.76-3.9,1.66-6.66,5.02-19.23,5.02-19.23Zm62.08-161.36s.01,.02,.01,.02c-3.02,10.1-5.59,18.71-7.23,24.2,1.5-5.04,3.59-12.03,7.22-24.22Zm20.61-68.58c-2.45,8.1-5.49,18.19-8.72,28.87-.98,2.25-.51-.36,1.52-7.06-.91,3.69,3.97-11.95,7.2-21.81Zm-30.37,80.7c.63-2.32,.83-2.92,.86-2.86,.03,.07-.12,.87-.31,1.8-.56,1.97-1.22,4.26-2.08,7.28-.14,.54-.42,1.65-.55,2.19,.5-2.03,1.08-4.35,2.09-8.4Z"/><path class="cls-1" d="M174.15,749.12c-.34,1.19-.52,1.86-.96,3.41-.07,.5-.08,.75,0,.66,.64-2.43,1.29-4.92,1.85-7.08-.3,1.01-.61,2.06-.89,3Z"/><polygon class="cls-1" points="320.64 116.25 320.87 116.2 322.09 110.25 320.64 116.25"/><path class="cls-1" d="M329.95,207.42c-.21,.7-.55,2.1-1.14,4.9,.09-.21,.57-2.32,1.14-4.9Z"/><path class="cls-1" d="M299.06,369.91l-4.64,22.93c2.05-9.91,3.5-17.15,4.64-22.93Z"/><path class="cls-1" d="M275.04,494.79c-.15,1.61-.13,2.08-.11,2.51,.02-.1,.04-.17,.05-.24l.05-2.27Z"/><path class="cls-1" d="M229.13,599.43c-.92,6.32-1.83,12.55-2.85,19.14,1.86-10.55,3.27-18.75,2.85-19.14Z"/><path class="cls-1" d="M202.72,642.96c-.02,.07,0,0,0,.07,.45-1.37,.85-2.57,1.3-3.94l-1.29,3.87Z"/><path class="cls-1" d="M221.57,646.15c1.96-10.53,3.43-19.36,4.71-27.58-1.53,8.65-3.35,18.83-4.71,27.58Z"/><path class="cls-1" d="M172.36,1036.32l-1.17,6.01c.07-.09,.05,.27,0,.74l1.17-6.75Z"/><path class="cls-1" d="M171.18,1043.07l-1.17,6.7c.58-3.07,1.08-5.74,1.17-6.7Z"/><path class="cls-1" d="M167.57,1063.88l2.45-14.11c-.92,4.87-2.08,10.87-2.45,14.11Z"/><path class="cls-1" d="M203.99,870.97l.06-1.95c-.13,1.04-.16,1.73-.06,1.95Z"/><path class="cls-1" d="M213.4,820.68c-2.33,11.98-6.32,29.96-9.3,46.73l-.06,1.61c1.04-7.95,7.71-36.85,9.35-48.33Z"/><path class="cls-1" d="M256.75,611.56l-8.2,42.08c1.71-7.3,3.97-16.9,.43,2.27,10.99-52.92-2.79,10.82,7.77-44.34Z"/><path class="cls-1" d="M281.89,481.04c-4.13,22.66,.51-.18,.47,1.05,2.42-14.41,3-17.9-.47-1.05Z"/><path class="cls-1" d="M300.6,160.33l-.37-2.41c-2.87,17.52,.26,.22,.37,2.41Z"/><polygon class="cls-1" points="273.71 342.02 277.08 325.07 277.76 316.84 273.71 342.02"/><polygon class="cls-1" points="250.13 448.04 251.32 440.38 246.62 469.62 250.13 448.04"/><path class="cls-1" d="M268.23,467.75l-2.58,4.8c-3.59,11.45-3.37,14.17,2.58-4.8Z"/><path class="cls-1" d="M380.56,130.14c-1.82,5.76-5.03,15.91-8.53,26.99-1.86,5.97-2.41,7.92-1.13,4.3,.11-.31,.2-.55,.28-.79,.09-.29,.18-.58,.26-.85,1.98-6.41,3.95-12.76,5.67-18.32,1.95-6.29,3.59-11.6,3.44-11.32Z"/><polygon class="cls-1" points="285.26 297.7 282.33 311.4 288.18 285.66 285.26 297.7"/></g></g></svg>
