<?xml version="1.0" encoding="UTF-8"?><svg id="Calque_2" xmlns="http://www.w3.org/2000/svg" viewBox="0 0 124.94 123.32"><defs><style>.cls-1{fill-rule:evenodd;}</style></defs><path class="cls-1" d="M75.14,44.82c2.3-1.9,4.62-3.75,6.95-5.56,10.23-7.96,20.67-14.77,30.56-19.93,2.67-1.38,5.95-.33,7.33,2.34,1.38,2.67,.33,5.95-2.34,7.33-11.03,5.59-22.61,13.52-34.14,22.37,1.75,1.48,3.46,2.99,5.1,4.54,3.03,3.11,5.84,6.35,8.41,9.84,5.84,7.9,10.62,16.37,16.47,24.19-7.44-6.24-14.15-13.17-21.42-19.69-2.99-2.68-6-5.25-9.27-7.59-2.28-1.79-4.7-3.46-7.16-5.11-2.48,1.98-4.95,3.99-7.43,5.99-3.69,2.97-7.36,5.9-10.99,8.86-11.8,9.62-22.85,19.17-32.01,28.23,6.29-8.96,13.62-18.69,22.02-28.33,5.19-5.96,10.68-11.85,16.53-17.43,1.09-1.04,2.19-2.06,3.3-3.07-4.65-3.16-9.26-6.42-13.56-9.94-4.31-3.53-8.27-7.41-11.66-11.77-1.83-2.38-1.38-5.8,1-7.63,2.38-1.83,5.8-1.38,7.63,1,2.87,3.76,6.27,7.06,9.91,10.15,4.68,3.97,9.79,7.53,14.77,11.21h0Z"/><path class="cls-1" d="M86.93,10.27C63.33-6.13,37.49-1.4,20.13,13.98,3.26,28.92-5.53,54,3.79,79.22c8.48,22.29,22.33,34.51,37.49,40.14,18.89,7.01,39.72,3.74,54.2-2.2,13.85-5.76,24.22-19.2,27.94-34.24,3.56-14.39,1.13-30.13-10.07-41.23,10.05,11.46,11.5,26.75,7.14,40.4-4.29,13.4-14.21,25.19-27.09,29.61-13.33,4.64-32.16,6.56-48.92-.45-12.83-5.37-24.38-16.15-31.14-35.5-7.52-20.87-.12-41.47,13.86-53.72,13.97-12.24,34.65-16,53.51-2.82,2.46,1.72,5.86,1.11,7.57-1.35,1.72-2.46,1.11-5.86-1.35-7.57h0Z"/></svg>