<?xml version="1.0" encoding="UTF-8"?><svg id="Calque_2" xmlns="http://www.w3.org/2000/svg" viewBox="0 0 131.95 127.91"><defs><style>.cls-1{fill-rule:evenodd;}</style></defs><path class="cls-1" d="M64.94,83.64c2.98-4.32,5.9-8.4,8.91-12.24,5.44-6.95,11-13.19,17.04-19,11.26-10.84,24.07-20.04,41.06-29.46-11.98,9.02-21.31,17.66-29.56,26.68-6.69,7.32-12.42,14.95-18.23,23.22-5.32,7.58-10.74,15.63-16.39,24.77-1.21,1.91-2.73,2.36-3.73,2.54-1.53,.28-3.01-.07-4.37-1.22-.57-.49-1.3-1.36-1.77-2.72-.38-1.1-.57-3.65-1-4.76-.79-2.06-1.63-4.11-2.51-6.14-.88-2.02-1.8-4.03-2.78-6-3.58-7.26-8.02-14.04-11.85-21.16-1.01-1.88-1.98-3.78-2.88-5.72-1.24-2.66-.08-5.83,2.58-7.06,2.66-1.24,5.83-.08,7.06,2.58,.82,1.76,1.69,3.49,2.6,5.2,3.85,7.25,8.3,14.17,11.89,21.57,1.03,2.14,2.02,4.31,2.94,6.5,.34,.8,.67,1.61,.99,2.42h0Z"/><path class="cls-1" d="M94.85,17.65C68.09-7.62,38.63-3.25,19.68,15,1.96,32.07-6.49,61.77,5.81,90.78c11.55,26,31.79,37.92,52.04,37.09,19.62-.81,39.33-13.64,50.31-37.3,2.5-5.43,5.19-11.41,6.8-17.56,1.08-4.12,1.69-8.3,1.43-12.42-.03,4.09-.92,8.17-2.28,12.16-2.02,5.94-5.09,11.65-7.93,16.82-11.58,21.18-30.23,32.18-48.4,31.9-17.51-.27-34.38-11.38-43.28-34.3-10.18-24.92-2.88-50.19,12.38-64.65,15.42-14.61,39.13-17.62,60.67,2.85,2.13,2.02,5.5,1.93,7.52-.2,2.02-2.13,1.93-5.5-.2-7.52h0Z"/></svg>