<?xml version="1.0" encoding="UTF-8"?><svg id="Calque_2" xmlns="http://www.w3.org/2000/svg" viewBox="0 0 52.86 111.96"><defs><style>.cls-1{fill-rule:evenodd;}</style></defs><path class="cls-1" d="M22.9,104.94c-.11-2.5-2.23-4.45-4.73-4.35-2.51,.11-4.45,2.23-4.35,4.73,.03,.82,.12,1.64,.18,2.45,.2,2.5,2.39,4.37,4.89,4.17,2.5-.2,4.37-2.39,4.17-4.89-.06-.71-.13-1.41-.16-2.12ZM34.01,.01c-5.58-.18-11.83,1.8-17.48,5.42C9.14,10.15,2.79,17.65,.2,26.25c-.73,2.4,.63,4.94,3.03,5.67,2.4,.73,4.94-.63,5.67-3.03,2.8-9.24,11.41-16.71,19.71-19.07,4.23-1.2,8.41-1.12,11.34,1.49,2.54,2.27,4.04,6.16,4.3,11.89,.24,4.04-1.01,7.21-3,10-2.77,3.89-6.72,7.14-10.49,10.57-4.26,3.89-8.27,7.97-10.5,13.11-2.17,5.04-3.16,10.25-3.43,15.58-.39,7.67,.59,15.47,.92,23.12,.65-7.54,.7-15.3,2.02-22.78,.85-4.8,2.24-9.43,4.75-13.77,2.42-4.21,6.38-7.22,10.39-10.21,4.56-3.4,9.24-6.68,12.62-10.79,3.35-4.06,5.38-8.91,5.33-15.13C52.44,6.61,43.85,.33,34.01,.01Z"/></svg>