<?xml version="1.0" encoding="UTF-8"?><svg id="Calque_2" xmlns="http://www.w3.org/2000/svg" viewBox="0 0 14.7 124.39"><defs><style>.cls-1{fill-rule:evenodd;}</style></defs><path class="cls-1" d="M.23,4.54C-.29,18.27,.08,31.98,1.17,45.66c.32,4.07,.71,8.13,1.2,12.19,.49,4.05,1.07,8.07,1.68,12.11,1.84,12.15,3.87,24.1,5.11,36.31,.61-6.83,1.05-13.57,1.3-20.43,.25-6.83,.37-13.6,.37-20.45,0-3.06,0-6.1-.08-9.16-.07-3.04-.2-6.08-.34-9.12-.65-14.06-1.36-28.11-.71-42.18C9.81,2.32,7.78,.11,5.17,0,2.55-.1,.34,1.93,.23,4.54H.23Z"/><path class="cls-1" d="M12.81,122.56c-.75,.96-1.86,1.63-3.16,1.79-2.6,.32-4.96-1.53-5.28-4.12-.21-1.74,.29-2.98,.99-3.93,.83-1.14,2.2-2.09,4.25-2.24,2.61-.19,4.88,1.77,5.07,4.38,.12,1.66-.63,3.19-1.87,4.12h0Z"/></svg>